<svg width="400" height="240" viewBox="0 0 400 240" fill="none" xmlns="http://www.w3.org/2000/svg">
  <rect width="400" height="240" fill="#1f2937"/>
  <rect x="10" y="10" width="380" height="220" rx="12" fill="#374151"/>
  
  <!-- Header -->
  <rect x="20" y="20" width="360" height="30" rx="6" fill="#4b5563"/>
  <rect x="30" y="27" width="60" height="16" rx="4" fill="#22d3ee"/>
  <circle cx="350" cy="35" r="6" fill="#22d3ee"/>
  
  <!-- Product Grid -->
  <rect x="30" y="65" width="100" height="70" rx="6" fill="#6b7280"/>
  <rect x="150" y="65" width="100" height="70" rx="6" fill="#6b7280"/>
  <rect x="270" y="65" width="100" height="70" rx="6" fill="#6b7280"/>
  
  <rect x="30" y="150" width="100" height="70" rx="6" fill="#6b7280"/>
  <rect x="150" y="150" width="100" height="70" rx="6" fill="#6b7280"/>
  <rect x="270" y="150" width="100" height="70" rx="6" fill="#6b7280"/>
  
  <!-- Product placeholders -->
  <rect x="40" y="75" width="80" height="30" rx="4" fill="#9ca3af"/>
  <rect x="160" y="75" width="80" height="30" rx="4" fill="#9ca3af"/>
  <rect x="280" y="75" width="80" height="30" rx="4" fill="#9ca3af"/>
  
  <rect x="40" y="160" width="80" height="30" rx="4" fill="#9ca3af"/>
  <rect x="160" y="160" width="80" height="30" rx="4" fill="#9ca3af"/>
  <rect x="280" y="160" width="80" height="30" rx="4" fill="#9ca3af"/>
  
  <text x="200" y="125" text-anchor="middle" fill="#9ca3af" font-family="Arial" font-size="10">E-commerce Store</text>
</svg>
