<svg width="400" height="240" viewBox="0 0 400 240" fill="none" xmlns="http://www.w3.org/2000/svg">
  <rect width="400" height="240" fill="#1f2937"/>
  <rect x="10" y="10" width="380" height="220" rx="12" fill="#374151"/>
  
  <!-- Header -->
  <rect x="20" y="20" width="360" height="40" rx="6" fill="#4b5563"/>
  <circle cx="45" cy="40" r="12" fill="#22d3ee"/>
  <rect x="70" y="33" width="80" height="6" rx="3" fill="#d1d5db"/>
  <rect x="70" y="43" width="50" height="5" rx="2" fill="#9ca3af"/>
  
  <!-- Navigation -->
  <rect x="280" y="33" width="30" height="5" rx="2" fill="#9ca3af"/>
  <rect x="320" y="33" width="30" height="5" rx="2" fill="#9ca3af"/>
  
  <!-- Hero Section -->
  <rect x="30" y="80" width="340" height="60" rx="6" fill="#6b7280"/>
  <rect x="45" y="95" width="120" height="10" rx="5" fill="#22d3ee"/>
  <rect x="45" y="110" width="160" height="6" rx="3" fill="#d1d5db"/>
  <rect x="45" y="125" width="80" height="12" rx="6" fill="#22d3ee"/>
  
  <!-- Skills/Projects Grid -->
  <rect x="30" y="160" width="70" height="50" rx="4" fill="#6b7280"/>
  <rect x="110" y="160" width="70" height="50" rx="4" fill="#6b7280"/>
  <rect x="190" y="160" width="70" height="50" rx="4" fill="#6b7280"/>
  <rect x="270" y="160" width="70" height="50" rx="4" fill="#6b7280"/>
  
  <text x="200" y="125" text-anchor="middle" fill="#9ca3af" font-family="Arial" font-size="10">Portfolio Website</text>
</svg>
